<?xml version="1.0" encoding="UTF-8"?>
<svg viewBox="0 0 24 24" xmlns="http://www.w3.org/2000/svg">
<path d="m22.052 3.5701c-1.2369-1.3415-2.9341-2.0804-4.7793-2.0804-1.3793 0-2.6424 0.43606-3.7544 1.296-0.56111 0.43405-1.0695 0.96509-1.5178 1.5849-0.44809-0.61963-0.9567-1.1509-1.518-1.5849-1.1118-0.8599-2.375-1.296-3.7543-1.296-1.8452 0-3.5426 0.73886-4.7795 2.0804-1.2221 1.3259-1.8954 3.1372-1.8954 5.1005 0 2.0208 0.75308 3.8706 2.3699 5.8215 1.4464 1.7451 3.5251 3.5167 5.9324 5.5681 0.82198 0.70057 1.7537 1.4947 2.7212 2.3405 0.25558 0.22386 0.58354 0.3471 0.92371 0.3471 0.33999 0 0.66812-0.12323 0.92334-0.34673 0.96746-0.84605 1.8997-1.6405 2.7221-2.3414 2.4069-2.051 4.4856-3.8224 5.932-5.5678 1.6168-1.9508 2.3697-3.8006 2.3697-5.8215 0-1.9632-0.67323-3.7745-1.8955-5.1003z"/>
</svg>
